<svg width="24" height="24" viewBox="0 0 24 24" fill="none" xmlns="http://www.w3.org/2000/svg">
<path d="M18.172 9.26624H17.457V11.7633H17.6935C18.4863 11.7633 19.129 12.3223 19.129 13.0118V15.7855C19.129 16.4751 18.4863 17.034 17.6935 17.034H17.457V19.5311H18.172C20.2861 19.5311 22 18.0405 22 16.2017V12.5956C22 10.7569 20.2861 9.26624 18.172 9.26624Z" fill="black"/>
<path d="M14.5377 2.84703C13.9981 2.8193 13.4914 2.93336 13.0617 3.15035C12.6734 3.34648 12.1754 3.26586 11.8866 2.96676C11.3157 2.3757 10.4597 2 9.50271 2C8.54571 2 7.68967 2.3757 7.11882 2.9668C6.82999 3.26586 6.33209 3.34648 5.94377 3.15035C5.51418 2.9334 5.00742 2.8193 4.46789 2.84703C3.13608 2.91547 2.06397 3.86121 2.00284 5.02035C1.96583 5.72203 2.29307 6.35781 2.83377 6.79742H5.76677V10.0962C5.76677 10.7857 6.40947 11.3447 7.20227 11.3447C7.99508 11.3447 8.63778 10.7857 8.63778 10.0962V6.79742H16.1716C16.7123 6.35781 17.0395 5.72211 17.0026 5.02047C16.9415 3.86137 15.8695 2.91559 14.5377 2.84703Z" fill="black"/>
<path d="M9.98399 10.0962C9.98399 11.4308 8.73559 12.5166 7.2011 12.5166C5.6666 12.5166 4.4182 11.4308 4.4182 10.0962V7.96936H2.89453V20.7515C2.89453 21.441 3.53723 22 4.33004 22H14.6729C15.4657 22 16.1084 21.441 16.1084 20.7515V7.96936H9.98399V10.0962Z" fill="black"/>
</svg>
