<svg width="24" height="24" viewBox="0 0 24 24" fill="none" xmlns="http://www.w3.org/2000/svg">
<path d="M8.5818 7.31245C8.5818 7.5419 8.3029 7.90124 8.11653 8.07007C7.85948 8.29893 7.85948 8.66975 8.11653 8.89862C8.37358 9.12749 8.79006 9.12749 9.04711 8.89862C9.1345 8.82136 9.89801 8.11815 9.89801 7.31248C9.89801 6.50682 9.13455 5.80357 9.04904 5.72803C8.86074 5.55752 8.58184 5.19818 8.58184 4.96873C8.58184 4.73927 8.86074 4.37994 9.04904 4.20943C9.30416 3.98056 9.30354 3.61091 9.04711 3.38259C8.79006 3.15372 8.37358 3.15372 8.11653 3.38259C8.02914 3.45985 7.26562 4.16306 7.26562 4.96873C7.26562 5.77439 8.02909 6.47764 8.1146 6.55319C8.3029 6.72365 8.5818 7.08299 8.5818 7.31245Z" fill="black"/>
<path d="M12.531 6.14057C12.531 6.37002 12.2521 6.72936 12.0657 6.89819C11.8087 7.12706 11.8087 7.49788 12.0657 7.72675C12.3228 7.95562 12.7393 7.95562 12.9963 7.72675C13.0837 7.64948 13.8472 6.94628 13.8472 6.14061C13.8472 5.33494 13.0838 4.6317 12.9983 4.55615C12.81 4.38564 12.5311 4.02631 12.5311 3.79685C12.5311 3.5674 12.81 3.169 12.9983 2.99849C13.2534 2.76962 13.2528 2.39997 12.9963 2.17165C12.7393 1.94278 12.3228 1.94278 12.0657 2.17165C11.9784 2.24892 11.2148 2.99119 11.2148 3.79685C11.2148 4.60252 11.9783 5.30576 12.0638 5.38131C12.2521 5.55178 12.531 5.91112 12.531 6.14057Z" fill="black"/>
<path d="M8.58265 16.1015H9.8982V14.9365C9.87315 14.7849 9.59746 14.417 9.24012 14.0393C8.88023 14.4198 8.60322 14.7901 8.58203 14.94L8.58265 16.1015Z" fill="black"/>
<path d="M16.5002 18.3902C20.2 18.0454 22.0743 15.9275 21.9969 13.9363C21.9397 12.4606 20.8395 11.4294 19.3215 11.4294C18.9453 11.4294 18.5686 11.4908 18.2137 11.5891C18.2277 11.4216 18.2425 11.2836 18.2586 11.2423C18.4469 11.0746 18.5034 10.8229 18.4013 10.6037C18.2997 10.3846 18.0594 10.2421 17.7933 10.2421H9.89629V12.934C10.402 13.4097 11.2125 14.2741 11.2125 14.9296V16.6874C11.2125 17.0113 10.9181 17.2733 10.5544 17.2733H7.92203C7.55828 17.2733 7.26394 17.0113 7.26394 16.6874V14.9296C7.26394 14.274 8.07444 13.4097 8.58011 12.934V10.2421H3.31543C3.04938 10.2421 2.78716 10.36 2.68498 10.5786C2.58346 10.7977 2.6175 11.0243 2.80581 11.192C2.8964 11.3545 2.93304 12.0325 2.96261 12.5773C3.10651 15.2426 3.40537 20.8281 10.5556 20.8281C13.6232 20.8281 15.4248 19.7661 16.5002 18.3902ZM20.6814 13.9769C20.7299 15.229 19.6669 16.6288 17.2711 17.1083C17.9287 15.6562 18.0678 14.0662 18.1344 12.8914C18.4547 12.7175 18.9038 12.6013 19.3215 12.6013C20.2861 12.6013 20.657 13.3423 20.6814 13.9769Z" fill="black"/>
<path d="M2.65809 22H18.4522C18.8159 22 19.1102 21.7379 19.1102 21.4141C19.1102 21.0902 18.8159 20.8281 18.4522 20.8281H2.65809C2.29434 20.8281 2 21.0902 2 21.4141C2 21.7379 2.29434 22 2.65809 22Z" fill="black"/>
</svg>
