<svg width="24" height="24" viewBox="0 0 24 24" fill="none" xmlns="http://www.w3.org/2000/svg">
<path d="M12 2C6.47768 2 2 6.47768 2 12C2 17.5223 6.47768 22 12 22C17.5223 22 22 17.5223 22 12C22 6.47768 17.5223 2 12 2ZM12 20.3036C7.41518 20.3036 3.69643 16.5848 3.69643 12C3.69643 7.41518 7.41518 3.69643 12 3.69643C16.5848 3.69643 20.3036 7.41518 20.3036 12C20.3036 16.5848 16.5848 20.3036 12 20.3036ZM12.125 8.41295C13.308 8.41295 14.1116 9.16741 14.2009 10.2746C14.2076 10.3683 14.2857 10.4397 14.3795 10.4397H15.6451C15.7031 10.4397 15.75 10.3929 15.75 10.3348C15.75 8.39955 14.2232 7.04464 12.1183 7.04464C9.66518 7.04464 8.25 8.70089 8.25 11.4375V12.6049C8.25 15.3214 9.66518 16.9554 12.1183 16.9554C14.2165 16.9554 15.75 15.6429 15.75 13.7991C15.75 13.7411 15.7031 13.6942 15.6451 13.6942H14.3772C14.2835 13.6942 14.2076 13.7656 14.1987 13.8571C14.1049 14.8862 13.3036 15.5938 12.1228 15.5938C10.6652 15.5938 9.84375 14.5246 9.84375 12.6116V11.4375C9.84598 9.49554 10.6696 8.41295 12.125 8.41295Z" fill="black"/>
</svg>
