<svg width="24" height="24" viewBox="0 0 24 24" fill="none" xmlns="http://www.w3.org/2000/svg">
<path d="M11.5 4C11.2239 4 11 4.23108 11 4.51613C11 4.80118 11.2239 5.03226 11.5 5.03226H12.5C12.7761 5.03226 13 4.80118 13 4.51613C13 4.23108 12.7761 4 12.5 4H11.5Z" fill="black"/>
<path d="M2 17.4193C2 17.1343 2.22386 16.9032 2.5 16.9032H21.5C21.7761 16.9032 22 17.1343 22 17.4193V19.4838C22 19.7689 21.7761 20 21.5 20H2.5C2.22385 20 2 19.7689 2 19.4838V17.4193Z" fill="black"/>
<path fill-rule="evenodd" clip-rule="evenodd" d="M12.0016 5.54834C16.7085 5.54834 20.5715 10.3142 20.9681 16.387H3.03516C3.43175 10.3142 7.2947 5.54834 12.0016 5.54834ZM13.5016 10.4347C13.5016 10.3097 13.4128 10.202 13.2918 10.196C13.2578 10.1943 13.2235 10.1935 13.1891 10.1935C12.2362 10.1935 11.4255 10.8405 11.1256 11.7433H10.7407C10.6019 11.7433 10.4944 11.8582 10.5005 12C10.5065 12.1417 10.6239 12.2566 10.7626 12.2566H11.0151C11.0062 12.3418 11.0016 12.4283 11.0016 12.5161C11.0016 12.6038 11.0062 12.6904 11.0151 12.7756H10.7407C10.6019 12.7756 10.4944 12.8905 10.5005 13.0322C10.5065 13.1739 10.6239 13.2888 10.7626 13.2888H11.1256C11.4255 14.1916 12.2362 14.8387 13.1891 14.8387C13.2235 14.8387 13.2578 14.8378 13.2918 14.8361C13.4128 14.8302 13.5016 14.7225 13.5016 14.5974C13.5016 14.4389 13.3607 14.3207 13.2071 14.3224L13.1891 14.3225C12.5228 14.3225 11.9354 13.9044 11.6629 13.2888H12.7626C12.9013 13.2888 13.0089 13.1739 13.0028 13.0322C12.9967 12.8905 12.8794 12.7756 12.7407 12.7756H11.5188C11.5075 12.691 11.5016 12.6044 11.5016 12.5161C11.5016 12.4278 11.5075 12.3412 11.5188 12.2566H12.7626C12.9013 12.2566 13.0089 12.1417 13.0028 12C12.9967 11.8582 12.8794 11.7433 12.7407 11.7433H11.6629C11.9354 11.1277 12.5228 10.7096 13.1891 10.7096L13.2071 10.7097C13.3607 10.7115 13.5016 10.5933 13.5016 10.4347Z" fill="black"/>
</svg>
