<svg width="24" height="24" viewBox="0 0 24 24" fill="none" xmlns="http://www.w3.org/2000/svg">
<path d="M8.78683 6.20715H5.92969V9.05715H8.78683V6.20715ZM7.37256 8.35001C6.97967 8.35001 6.65112 8.02857 6.65112 7.63572C6.65112 7.23568 6.97256 6.92144 7.36541 6.92144H7.37256C7.76541 6.92144 8.08684 7.23568 8.08684 7.63572C8.08684 8.02857 7.76541 8.35001 7.37256 8.35001Z" fill="black"/>
<path d="M5.92969 17.7929H8.78683V14.9429H5.92969V17.7929ZM7.36541 15.65H7.37256C7.76541 15.65 8.08684 15.9714 8.08684 16.3643C8.08684 16.7643 7.76541 17.0786 7.37256 17.0786C6.97967 17.0786 6.65112 16.7643 6.65112 16.3643C6.65112 15.9714 6.97256 15.65 7.36541 15.65Z" fill="black"/>
<path d="M15.2148 9.05715H18.072V6.20715H15.2148V9.05715ZM16.6506 6.92144H16.6577C17.0506 6.92144 17.372 7.23568 17.372 7.63572C17.372 8.02857 17.0506 8.35001 16.6577 8.35001C16.2648 8.35001 15.9434 8.02857 15.9434 7.63572C15.9434 7.23568 16.2577 6.92144 16.6506 6.92144Z" fill="black"/>
<path d="M15.2148 17.7929H18.072V14.9429H15.2148V17.7929ZM16.6506 15.65H16.6577C17.0506 15.65 17.372 15.9714 17.372 16.3643C17.372 16.7643 17.0506 17.0786 16.6577 17.0786C16.2648 17.0786 15.9434 16.7643 15.9434 16.3643C15.9434 15.9714 16.2577 15.65 16.6506 15.65Z" fill="black"/>
<path d="M19.8571 2H4.14286C2.96427 2 2 2.96427 2 4.14286V19.8571C2 21.0357 2.96427 22 4.14286 22H19.8571C21.0357 22 22 21.0357 22 19.8571V4.14286C22 2.96427 21.0357 2 19.8571 2ZM18.7857 12.7143H12.7143V18.5071C12.7143 18.9 12.3928 19.2214 12 19.2214C11.6072 19.2214 11.2857 18.9 11.2857 18.5071V12.7143H5.21429C4.82144 12.7143 4.5 12.3928 4.5 12C4.5 11.6072 4.82144 11.2857 5.21429 11.2857H11.2857V5.49287C11.2857 5.09998 11.6072 4.77858 12 4.77858C12.3928 4.77858 12.7143 5.09998 12.7143 5.49287V11.2857H18.7857C19.1786 11.2857 19.5 11.6072 19.5 12C19.5 12.3928 19.1786 12.7143 18.7857 12.7143ZM19.5 14.8428V17.8929C19.5 18.6285 18.9 19.2214 18.1714 19.2214H15.1214C14.3857 19.2214 13.7857 18.6285 13.7857 17.8929V14.8428C13.7857 14.1072 14.3857 13.5143 15.1214 13.5143H18.1714C18.9 13.5143 19.5 14.1072 19.5 14.8428ZM10.2143 14.8428V17.8929C10.2143 18.6285 9.61427 19.2214 8.87857 19.2214H5.82856C5.10002 19.2214 4.5 18.6285 4.5 17.8929V14.8428C4.5 14.1072 5.10002 13.5143 5.82856 13.5143H8.87857C9.61427 13.5143 10.2143 14.1072 10.2143 14.8428ZM4.5 9.15711V6.10714C4.5 5.37141 5.10002 4.77858 5.82856 4.77858H8.87857C9.61427 4.77858 10.2143 5.37141 10.2143 6.10714V9.15711C10.2143 9.89285 9.61427 10.4857 8.87857 10.4857H5.82856C5.10002 10.4857 4.5 9.89285 4.5 9.15711ZM18.1714 10.4857H15.1214C14.3857 10.4857 13.7857 9.89285 13.7857 9.15711V6.10714C13.7857 5.37141 14.3857 4.77858 15.1214 4.77858H18.1714C18.9 4.77858 19.5 5.37141 19.5 6.10714V9.15711C19.5 9.89285 18.9 10.4857 18.1714 10.4857Z" fill="black"/>
</svg>
