<svg width="24" height="24" viewBox="0 0 24 24" fill="none" xmlns="http://www.w3.org/2000/svg">
<path d="M10.8076 2C5.9512 2 2 5.95121 2 10.8076C2 15.6642 5.9512 19.6152 10.8076 19.6152C15.6642 19.6152 19.6151 15.6642 19.6151 10.8076C19.6151 5.95121 15.6642 2 10.8076 2ZM10.8076 17.9892C6.84768 17.9892 3.62601 14.7675 3.62601 10.8076C3.62601 6.84773 6.84768 3.62602 10.8076 3.62602C14.7674 3.62602 17.9891 6.8477 17.9891 10.8076C17.9891 14.7675 14.7674 17.9892 10.8076 17.9892Z" fill="black"/>
<path d="M21.7639 20.6122L17.1027 15.951C16.785 15.6334 16.2707 15.6334 15.9531 15.951C15.6354 16.2683 15.6354 16.7832 15.9531 17.1006L20.6143 21.7618C20.7731 21.9206 20.981 22 21.1891 22C21.3969 22 21.6051 21.9206 21.7639 21.7618C22.0815 21.4445 22.0815 20.9296 21.7639 20.6122Z" fill="black"/>
</svg>
