<svg width="24" height="24" viewBox="0 0 24 24" fill="none" xmlns="http://www.w3.org/2000/svg">
<path d="M13.6484 6.30908C13.6487 6.85428 13.8844 7.37674 14.303 7.7599C14.4486 7.89311 14.6829 7.89245 14.8276 7.75838C14.9723 7.6243 14.973 7.40718 14.8292 7.27228C14.55 7.01855 14.3928 6.67145 14.3928 6.30912C14.3928 5.94679 14.55 5.59965 14.8292 5.34596C15.7253 4.51566 15.3063 3.23118 14.457 2.44432C14.3115 2.31111 14.0771 2.31177 13.9325 2.44584C13.7878 2.57992 13.7871 2.79704 13.9308 2.93194C14.5248 3.48237 14.8572 4.34471 14.303 4.85826C13.8844 5.24142 13.6487 5.76384 13.6484 6.30908Z" fill="black"/>
<path d="M9.55469 8.03332C9.55494 8.57852 9.79065 9.10099 10.2092 9.48414C10.3548 9.61736 10.5892 9.61669 10.7338 9.48262C10.8785 9.34855 10.8792 9.13142 10.7355 8.99653C10.4563 8.74283 10.299 8.3957 10.299 8.03336C10.299 7.67103 10.4563 7.32389 10.7355 7.0702C11.6315 6.2399 11.2125 4.95542 10.3633 4.16856C10.2177 4.03535 9.98336 4.03601 9.83871 4.17009C9.69402 4.30416 9.69331 4.52129 9.83707 4.65618C10.4311 5.20665 10.7635 6.06895 10.2092 6.58251C9.79065 6.96566 9.55494 7.48809 9.55469 8.03332Z" fill="black"/>
<path d="M5.65625 5.96423C5.6565 6.50943 5.89221 7.0319 6.31081 7.41505C6.40461 7.50307 6.54214 7.5378 6.67114 7.50604C6.80015 7.47428 6.90095 7.38091 6.93523 7.26133C6.9695 7.14175 6.93206 7.01436 6.83708 6.92743C6.5579 6.67374 6.40061 6.32661 6.40061 5.96427C6.40061 5.60194 6.5579 5.2548 6.83708 5.00111C7.73313 4.17081 7.31411 2.88633 6.4649 2.09947C6.31933 1.96626 6.08496 1.96692 5.94032 2.101C5.79563 2.23507 5.79491 2.4522 5.93867 2.58709C6.53273 3.13756 6.86507 3.99986 6.31085 4.51341C5.89221 4.89657 5.6565 5.41903 5.65625 5.96423Z" fill="black"/>
<path d="M18.7072 5.84008C19.2915 4.48825 20.8732 3.55369 21.7664 3.11572C21.8717 3.06341 21.9193 2.94719 21.878 2.84328C21.856 2.78394 21.809 2.73542 21.7477 2.70878C21.6855 2.68182 21.6138 2.68057 21.5505 2.70534C20.2235 3.20569 19.0773 4.04529 18.2457 5.12623C17.7452 5.94251 17.4145 6.83852 17.2706 7.76781C17.0788 8.7507 16.9508 9.74336 16.8873 10.7405C16.8389 11.4474 16.824 11.9957 16.8203 12.2234C17.2074 12.2027 17.5795 12.182 17.9368 12.1544C17.948 11.2543 18.0224 7.42642 18.7072 5.84008Z" fill="black"/>
<path d="M18.6836 12.0992C19.7204 12.0451 20.7488 11.8961 21.7539 11.6543C20.7552 11.4128 19.7328 11.2649 18.7022 11.2129C18.6911 11.5922 18.6836 11.8992 18.6836 12.0992Z" fill="black"/>
<path d="M18.3491 12.8199C17.7722 12.8648 17.1395 12.9027 16.4771 12.9337C15.0182 12.9993 13.5072 13.0337 11.9814 13.0337C9.50876 13.0483 7.03694 12.947 4.57536 12.7303C3.70457 12.6673 2.84221 12.5276 2 12.313C2.56198 16.803 6.88277 20.2757 11.9814 20.2757C14.293 20.3011 16.5501 19.6253 18.4086 18.3514C18.4309 18.3312 18.4559 18.3139 18.4831 18.2997C20.5268 16.8601 21.8071 14.6783 22 12.3062C20.8052 12.5925 19.5818 12.7647 18.3491 12.8199ZM4.11334 14.5358C4.07776 14.6212 4.00698 14.69 3.91667 14.727C3.87 14.7471 3.81924 14.7576 3.76781 14.758C3.62042 14.7585 3.4864 14.6789 3.42544 14.5545C3.3138 14.32 3.20958 14.0786 3.124 13.8373C3.08138 13.7208 3.10908 13.5921 3.1966 13.4997C3.28412 13.4073 3.41827 13.3652 3.54837 13.3893C3.67852 13.4134 3.78484 13.5 3.82734 13.6165C3.90921 13.8373 4.00226 14.0579 4.10647 14.2717C4.14648 14.3555 4.14893 14.4505 4.11334 14.5358ZM9.35767 18.8928C9.3059 19.0329 9.1639 19.1271 9.00412 19.1274C8.96373 19.127 8.92364 19.1211 8.88502 19.1101C7.0565 18.5302 5.46483 17.443 4.32604 15.9961C4.24728 15.8963 4.23223 15.7651 4.28662 15.6523C4.341 15.5394 4.45639 15.4621 4.58911 15.4498C4.72182 15.4375 4.85151 15.492 4.92895 15.5926C5.97841 16.9216 7.44226 17.9205 9.12322 18.4549C9.31783 18.5165 9.42246 18.712 9.35767 18.8928Z" fill="black"/>
<path d="M11.983 20.9654C9.71818 20.9656 7.50859 20.3176 5.65625 19.1101V20.6206C5.65625 21.0896 7.88924 22 11.983 22C16.0768 22 18.3098 21.0896 18.3098 20.6206V19.2653C16.4258 20.3936 14.226 20.9847 11.983 20.9654Z" fill="black"/>
<path d="M16.0764 12.2578C16.0801 12.075 16.0876 11.6371 16.1211 11.0508C14.7999 10.9957 13.4154 10.9646 11.9826 10.9646C6.75 10.9646 3.24052 11.3301 2.18359 11.6543C3.24052 11.9785 6.75004 12.344 11.9826 12.344C13.3708 12.344 14.7441 12.313 16.0764 12.2578Z" fill="black"/>
</svg>
