<svg width="24" height="24" viewBox="0 0 24 24" fill="none" xmlns="http://www.w3.org/2000/svg">
<path d="M11.9997 2C9.27957 2 6.81107 2.60632 4.99745 3.60937C3.18383 4.61243 2 6.04192 2 7.66668V16.3334C2 17.9581 3.18383 19.3876 4.99745 20.3906C6.81107 21.3937 9.27957 22 11.9997 22C14.7197 22 17.1861 21.3937 18.9998 20.3906C20.8134 19.3876 22 17.9581 22 16.3334V7.66668C22 6.04192 20.8134 4.61243 18.9998 3.60937C17.1861 2.60632 14.7197 2 11.9997 2ZM11.9997 2.66668C14.6054 2.66668 16.9591 3.25507 18.6356 4.18231C20.3122 5.10954 21.2857 6.34592 21.2857 7.66668C21.2857 8.98743 20.3122 10.2238 18.6356 11.151C16.9591 12.0783 14.6054 12.6667 11.9997 12.6667C9.39395 12.6667 7.03742 12.0783 5.36089 11.151C3.68436 10.2238 2.71431 8.98743 2.71431 7.66668C2.71431 6.34592 3.68436 5.10954 5.36089 4.18231C7.03742 3.25507 9.39395 2.66668 11.9997 2.66668ZM11.9997 4.33268C10.1761 4.33268 8.52223 4.67224 7.29385 5.24546C6.06547 5.81868 5.2137 6.6581 5.2137 7.66668C5.2137 8.57982 5.91524 9.35002 6.95902 9.91342C10.5419 9.02845 12.9321 7.06459 13.4206 4.40496C12.962 4.35834 12.4876 4.33264 11.9997 4.33264V4.33268ZM14.1217 4.49677C13.9305 5.63761 13.1737 6.79955 12.5249 7.58467C13.2496 7.99751 15.3203 8.97372 18.4117 8.77411C18.6487 8.43499 18.7863 8.06505 18.7863 7.66668C18.7863 6.6581 17.9317 5.81868 16.7034 5.24546C15.975 4.90559 15.0953 4.65028 14.1217 4.49677ZM12.0589 8.09702C10.8541 9.30572 9.10801 9.99465 7.94189 10.3476C9.07857 10.7589 10.4782 10.9981 11.9997 10.9981C13.8232 10.9981 15.475 10.6585 16.7034 10.0853C17.092 9.90392 17.4372 9.69348 17.7358 9.46224C14.7588 9.48568 12.736 8.4885 12.0589 8.09702Z" fill="black"/>
</svg>
