<svg width="24" height="24" viewBox="0 0 24 24" fill="none" xmlns="http://www.w3.org/2000/svg">
<path d="M12 2C6.4767 2 2 6.47713 2 12C2 17.5229 6.4767 22 12 22C17.5233 22 22 17.5224 22 12C22 6.47757 17.5229 2 12 2ZM12.6053 16.4545V17.6121C12.6053 17.7927 12.4648 17.9241 12.2837 17.9241H11.5122C11.3311 17.9241 11.1853 17.7927 11.1853 17.6121V16.5563C10.4751 16.5241 9.75882 16.3727 9.21659 16.1664C8.92284 16.055 8.75922 15.7404 8.83711 15.4357L8.96288 14.9457C9.00683 14.7738 9.12172 14.6302 9.27882 14.5497C9.43592 14.4679 9.62044 14.4596 9.78537 14.5227C10.3019 14.7225 10.9121 14.8678 11.5635 14.8678C12.393 14.8678 12.9609 14.5475 12.9609 13.9653C12.9609 13.4122 12.4952 13.0627 11.4177 12.6985C9.86022 12.1745 8.79359 11.4469 8.79359 10.0347C8.79359 8.75399 9.70007 7.7496 11.2497 7.44367V6.38792C11.2497 6.20732 11.4042 6.04543 11.5853 6.04543H12.3568C12.5379 6.04543 12.6706 6.20732 12.6706 6.38792V7.3414C13.3482 7.37056 13.8373 7.47108 14.2464 7.60425C14.5558 7.70521 14.7386 8.02942 14.6572 8.34536L14.5467 8.78402C14.5036 8.95113 14.3931 9.093 14.2416 9.17481C14.0902 9.25663 13.9113 9.27142 13.7477 9.21528C13.376 9.08778 12.8912 8.97202 12.2768 8.97202C11.3307 8.97202 11.0248 9.37978 11.0248 9.78755C11.0248 10.268 11.5344 10.5735 12.7716 11.0396C14.5036 11.651 15.1994 12.4517 15.1994 13.7612C15.199 15.0567 14.2838 16.1638 12.6053 16.4545Z" fill="white"/>
</svg>
