<svg width="24" height="24" viewBox="0 0 24 24" fill="none" xmlns="http://www.w3.org/2000/svg">
<path d="M21.8678 11.6174L17.3225 6.18973C17.1592 5.96206 16.8722 5.93552 16.6816 6.13054C16.4909 6.32551 16.4687 6.66815 16.632 6.89582C16.6472 6.91705 16.6638 6.93687 16.6816 6.95501L20.4497 11.46H2.45452C2.20351 11.46 2 11.703 2 12.0028C2 12.3025 2.20351 12.5455 2.45452 12.5455H20.4497L16.6816 17.045C16.4909 17.24 16.4687 17.5826 16.632 17.8103C16.7953 18.0379 17.0822 18.0645 17.2729 17.8695C17.2907 17.8513 17.3073 17.8315 17.3225 17.8103L21.8678 12.3826C22.0441 12.171 22.0441 11.8291 21.8678 11.6174Z" fill="black"/>
</svg>
