<svg width="20" height="20" viewBox="0 0 20 20" fill="none" xmlns="http://www.w3.org/2000/svg">
<rect width="20" height="20" rx="10" fill="#C6B1E1"/>
<path d="M6.15372 10.594C6.15372 9.782 6.31705 9.07267 6.64372 8.466C6.97972 7.85933 7.44172 7.39267 8.02972 7.066C8.62705 6.73933 9.30839 6.576 10.0737 6.576C11.0537 6.576 11.8704 6.83267 12.5237 7.346C13.1864 7.85933 13.6204 8.58267 13.8257 9.516H11.2777C11.0631 8.91867 10.6477 8.62 10.0317 8.62C9.59305 8.62 9.24305 8.79267 8.98172 9.138C8.72039 9.474 8.58972 9.95933 8.58972 10.594C8.58972 11.2287 8.72039 11.7187 8.98172 12.064C9.24305 12.4 9.59305 12.568 10.0317 12.568C10.6477 12.568 11.0631 12.2693 11.2777 11.672H13.8257C13.6204 12.5867 13.1864 13.3053 12.5237 13.828C11.8611 14.3507 11.0444 14.612 10.0737 14.612C9.30839 14.612 8.62705 14.4487 8.02972 14.122C7.44172 13.7953 6.97972 13.3287 6.64372 12.722C6.31705 12.1153 6.15372 11.406 6.15372 10.594Z" fill="black"/>
</svg>
