<svg width="24" height="24" viewBox="0 0 24 24" fill="none" xmlns="http://www.w3.org/2000/svg">
<path d="M13.0556 13.1096C12.7743 12.8649 12.3956 12.7278 12.0011 12.7278C11.6067 12.7278 11.228 12.8649 10.9466 13.1096C10.9466 13.1096 10.1188 13.8424 9.88281 14.0072L10.6072 22H13.4013L14.1257 14.0127C13.9891 13.9468 13.0556 13.1096 13.0556 13.1096Z" fill="black"/>
<path d="M7.82082 13.0271C7.55252 12.7947 7.19587 12.6593 6.8207 12.6475C6.44553 12.6356 6.07887 12.7481 5.79253 12.963L4.34375 14.0402L5.73872 20.8752C5.80281 21.1894 5.98967 21.4737 6.26662 21.6783C6.54357 21.883 6.89297 21.9949 7.25372 21.9945H9.78287L9.06263 14.053C8.89912 13.9981 7.82082 13.0271 7.82082 13.0271Z" fill="black"/>
<path d="M11.6686 5.91738C11.7755 5.95491 11.889 5.97538 12.0039 5.97784C12.1477 5.98094 12.29 5.9508 12.4167 5.89041C12.5433 5.83001 12.65 5.74145 12.7262 5.63343C12.8209 5.5089 12.8713 5.36218 12.8711 5.21208C12.8706 5.09544 12.8401 4.98042 12.7819 4.87577C12.7237 4.77113 12.6393 4.6796 12.5351 4.60814C12.431 4.53669 12.3098 4.48719 12.1808 4.4634C12.0518 4.43961 11.9183 4.44216 11.7906 4.47086C11.6628 4.49955 11.5442 4.55364 11.4436 4.62901C11.343 4.70437 11.2632 4.79904 11.2101 4.90582C11.1571 5.01259 11.1322 5.12867 11.1374 5.24522C11.1426 5.36178 11.1778 5.47575 11.2402 5.57847C11.3372 5.72992 11.4877 5.84898 11.6686 5.91738Z" fill="black"/>
<path d="M16.9948 9.11594L16.7589 9.06648L16.7009 8.85763C16.3305 7.57527 15.0121 6.53289 13.3046 6.17749C13.1498 6.35118 12.9508 6.49001 12.7238 6.58266C12.4969 6.6753 12.2484 6.71914 11.9986 6.71059C11.3053 6.71059 10.732 6.2068 10.6989 6.172C8.99343 6.5274 7.67504 7.55878 7.30664 8.84847L7.25076 9.06648L7.01275 9.12143C6.01607 9.35151 5.15677 9.91068 4.61135 10.6841C4.06592 11.4575 3.87579 12.3864 4.08001 13.28L5.25352 12.4061C5.69694 12.0739 6.26438 11.8999 6.84498 11.9182C7.42558 11.9365 7.97762 12.1457 8.39322 12.505L9.42807 13.3917L10.376 12.5802C10.5885 12.3917 10.8417 12.243 11.1204 12.143C11.3992 12.0429 11.6978 11.9935 11.9986 11.9976C12.6096 12.0011 13.1951 12.2146 13.6316 12.593L14.5588 13.3954L15.6164 12.4959C16.0325 12.1401 16.583 11.9338 17.1612 11.9169C17.7394 11.9 18.304 12.0737 18.7458 12.4043L19.9172 13.28C20.1251 12.3867 19.938 11.4568 19.3942 10.6821C18.8505 9.90733 17.9917 9.34677 16.9948 9.11594Z" fill="black"/>
<path d="M16.1829 13.0161C16.1829 13.0161 15.0694 13.9944 14.9411 14.0384L14.2188 21.9945H16.752C17.1128 21.9949 17.4622 21.8829 17.7391 21.6783C18.0161 21.4737 18.203 21.1894 18.267 20.8752L18.9604 17.4788L19.6496 14.0402L18.2008 12.9575C17.9157 12.7449 17.5518 12.6332 17.1791 12.644C16.8065 12.6549 16.4516 12.7874 16.1829 13.0161Z" fill="black"/>
<path d="M13.8315 2.00062C13.2873 2.05379 12.7684 2.23257 12.3268 2.51906C12.1234 2.66888 11.9584 2.85535 11.8428 3.06605C11.7271 3.27674 11.6635 3.50682 11.6562 3.74097C11.9318 3.69992 12.2142 3.71179 12.4841 3.77578C12.4858 3.64772 12.5178 3.52139 12.578 3.40496C12.6383 3.28852 12.7254 3.18456 12.8339 3.09979C13.148 2.90031 13.5139 2.77428 13.8977 2.7334C14.0058 2.72365 14.1052 2.67671 14.1745 2.60268C14.2438 2.52866 14.2774 2.43349 14.2682 2.3377C14.2597 2.24211 14.2092 2.15327 14.1276 2.09025C14.0459 2.02723 13.9396 1.99505 13.8315 2.00062Z" fill="black"/>
</svg>
