<svg width="24" height="24" viewBox="0 0 24 24" fill="none" xmlns="http://www.w3.org/2000/svg">
<path d="M21.5299 3.18167L17.3838 2.02848C17.0279 1.92938 16.646 2.09715 16.5295 2.40363L15.1367 6.06899H16.5668L17.6104 3.32277L21.1127 4.2969C21.4698 4.39631 21.8528 4.22706 21.968 3.91913C22.0832 3.6112 21.8871 3.28101 21.5299 3.18167Z" fill="black"/>
<path d="M5.92626 4.8972H9.01574C8.54924 3.65163 7.19234 2.74792 5.59462 2.74792C3.61253 2.74792 2 4.13842 2 5.84759C2 7.02754 2.76869 8.05534 3.89679 8.57889C3.89144 8.49077 3.88777 8.40237 3.88777 8.31339V6.65504C3.88777 5.68571 4.80219 4.8972 5.92626 4.8972Z" fill="black"/>
<path d="M5.24609 6.65502V8.31337C5.24609 8.52825 5.26693 8.74001 5.30652 8.94727H14.0413L15.1351 6.06909H5.92559C5.55033 6.06909 5.24609 6.33139 5.24609 6.65502Z" fill="black"/>
<path d="M19.5274 8.94718C19.567 8.73991 19.5879 8.52815 19.5879 8.31327V6.65491C19.5879 6.33131 19.2836 6.06897 18.9084 6.06897H16.5664L15.4727 8.94718H19.5274Z" fill="black"/>
<path d="M8.28464 11.9999C8.68717 12.1207 8.99181 12.4241 9.07987 12.7918C9.27869 13.6223 9.59099 14.3026 10.0081 14.8137C10.465 15.3736 11.0547 15.7331 11.7376 15.8742V20.8282H8.8112C8.43594 20.8282 8.13171 21.0905 8.13171 21.4141C8.13171 21.7377 8.43594 22.0001 8.8112 22.0001H16.0231C16.3984 22.0001 16.7026 21.7377 16.7026 21.4141C16.7026 21.0905 16.3984 20.8282 16.0231 20.8282H13.0966V15.8742C13.7794 15.7331 14.3691 15.3736 14.826 14.8137C15.2431 14.3026 15.5555 13.6223 15.7542 12.7918C15.8423 12.4241 16.1469 12.1207 16.5494 11.9999C17.6619 11.6661 18.5503 10.9809 19.0724 10.1191H5.76172C6.28384 10.9809 7.17217 11.6661 8.28464 11.9999Z" fill="black"/>
</svg>
