<svg width="24" height="24" viewBox="0 0 24 24" fill="none" xmlns="http://www.w3.org/2000/svg">
<path d="M11.9997 2C6.4771 2 2 6.4774 2 11.9998C2 17.5222 6.4771 22 11.9997 22C17.5224 22 22 17.5225 22 11.9998C22 6.47713 17.5224 2 11.9997 2ZM16.7535 9.19633L15.8037 10.1461L13.8703 8.21287L13.1368 8.94633L15.0702 10.8797L10.3281 15.6215L8.39478 13.6884L7.6613 14.4219L9.59458 16.3551L9.12205 16.8277L9.11305 16.8187C9.06065 16.9049 8.97545 16.9679 8.87425 16.9903L7.07137 17.3923C7.04437 17.3984 7.0169 17.4013 6.98977 17.4013C6.89137 17.4013 6.79577 17.3626 6.7249 17.2915C6.63396 17.2009 6.5961 17.0701 6.6241 16.9447L7.0259 15.1423C7.04857 15.0412 7.11163 14.9558 7.19777 14.9035L7.18864 14.8944L14.82 7.26273C14.9319 7.15107 15.1136 7.15107 15.2255 7.26307L16.7536 8.79087C16.8655 8.90273 16.8655 9.08447 16.7535 9.19633Z" fill="black"/>
</svg>
