<svg width="201" height="46" viewBox="0 0 201 46" fill="none" xmlns="http://www.w3.org/2000/svg">
<path d="M9 16.155C9 11.7367 12.5817 8.155 17 8.155H31C35.4183 8.155 39 11.7367 39 16.155V18.155H9V16.155Z" fill="#ACAAAB"/>
<rect x="8" y="22.155" width="32" height="4" rx="2" fill="white"/>
<path d="M9 30.155H39V34.155C39 36.3641 37.2091 38.155 35 38.155H13C10.7909 38.155 9 36.3641 9 34.155V30.155Z" fill="#A8A8A8"/>
<path d="M56 18.8C56 16.72 56.45 14.87 57.35 13.25C58.25 11.61 59.5 10.34 61.1 9.44C62.72 8.52 64.55 8.06 66.59 8.06C69.09 8.06 71.23 8.72 73.01 10.04C74.79 11.36 75.98 13.16 76.58 15.44H70.94C70.52 14.56 69.92 13.89 69.14 13.43C68.38 12.97 67.51 12.74 66.53 12.74C64.95 12.74 63.67 13.29 62.69 14.39C61.71 15.49 61.22 16.96 61.22 18.8C61.22 20.64 61.71 22.11 62.69 23.21C63.67 24.31 64.95 24.86 66.53 24.86C67.51 24.86 68.38 24.63 69.14 24.17C69.92 23.71 70.52 23.04 70.94 22.16H76.58C75.98 24.44 74.79 26.24 73.01 27.56C71.23 28.86 69.09 29.51 66.59 29.51C64.55 29.51 62.72 29.06 61.1 28.16C59.5 27.24 58.25 25.97 57.35 24.35C56.45 22.73 56 20.88 56 18.8Z" fill="white"/>
<path d="M87.3416 29.6C85.7016 29.6 84.2216 29.25 82.9016 28.55C81.6016 27.85 80.5716 26.85 79.8116 25.55C79.0716 24.25 78.7016 22.73 78.7016 20.99C78.7016 19.27 79.0816 17.76 79.8416 16.46C80.6016 15.14 81.6416 14.13 82.9616 13.43C84.2816 12.73 85.7616 12.38 87.4016 12.38C89.0416 12.38 90.5216 12.73 91.8416 13.43C93.1616 14.13 94.2016 15.14 94.9616 16.46C95.7216 17.76 96.1016 19.27 96.1016 20.99C96.1016 22.71 95.7116 24.23 94.9316 25.55C94.1716 26.85 93.1216 27.85 91.7816 28.55C90.4616 29.25 88.9816 29.6 87.3416 29.6ZM87.3416 25.16C88.3216 25.16 89.1516 24.8 89.8316 24.08C90.5316 23.36 90.8816 22.33 90.8816 20.99C90.8816 19.65 90.5416 18.62 89.8616 17.9C89.2016 17.18 88.3816 16.82 87.4016 16.82C86.4016 16.82 85.5716 17.18 84.9116 17.9C84.2516 18.6 83.9216 19.63 83.9216 20.99C83.9216 22.33 84.2416 23.36 84.8816 24.08C85.5416 24.8 86.3616 25.16 87.3416 25.16Z" fill="white"/>
<path d="M105.633 29.6C104.173 29.6 102.873 29.35 101.733 28.85C100.593 28.35 99.6931 27.67 99.0331 26.81C98.3731 25.93 98.0031 24.95 97.9231 23.87H102.993C103.053 24.45 103.323 24.92 103.803 25.28C104.283 25.64 104.873 25.82 105.573 25.82C106.213 25.82 106.703 25.7 107.043 25.46C107.403 25.2 107.583 24.87 107.583 24.47C107.583 23.99 107.333 23.64 106.833 23.42C106.333 23.18 105.523 22.92 104.403 22.64C103.203 22.36 102.203 22.07 101.403 21.77C100.603 21.45 99.9131 20.96 99.3331 20.3C98.7531 19.62 98.4631 18.71 98.4631 17.57C98.4631 16.61 98.7231 15.74 99.2431 14.96C99.7831 14.16 100.563 13.53 101.583 13.07C102.623 12.61 103.853 12.38 105.273 12.38C107.373 12.38 109.023 12.9 110.223 13.94C111.443 14.98 112.143 16.36 112.323 18.08H107.583C107.503 17.5 107.243 17.04 106.803 16.7C106.383 16.36 105.823 16.19 105.123 16.19C104.523 16.19 104.063 16.31 103.743 16.55C103.423 16.77 103.263 17.08 103.263 17.48C103.263 17.96 103.513 18.32 104.013 18.56C104.533 18.8 105.333 19.04 106.413 19.28C107.653 19.6 108.663 19.92 109.443 20.24C110.223 20.54 110.903 21.04 111.483 21.74C112.083 22.42 112.393 23.34 112.413 24.5C112.413 25.48 112.133 26.36 111.573 27.14C111.033 27.9 110.243 28.5 109.203 28.94C108.183 29.38 106.993 29.6 105.633 29.6Z" fill="white"/>
<path d="M132.652 12.62L122.152 37.31H116.632L120.472 28.79L113.662 12.62H119.392L123.262 23.09L127.102 12.62H132.652Z" fill="white"/>
<path d="M150.557 15.08C150.557 16.3 150.277 17.42 149.717 18.44C149.157 19.44 148.297 20.25 147.137 20.87C145.977 21.49 144.537 21.8 142.817 21.8H139.637V29.36H134.507V8.3H142.817C144.497 8.3 145.917 8.59 147.077 9.17C148.237 9.75 149.107 10.55 149.687 11.57C150.267 12.59 150.557 13.76 150.557 15.08ZM142.427 17.72C143.407 17.72 144.137 17.49 144.617 17.03C145.097 16.57 145.337 15.92 145.337 15.08C145.337 14.24 145.097 13.59 144.617 13.13C144.137 12.67 143.407 12.44 142.427 12.44H139.637V17.72H142.427Z" fill="white"/>
<path d="M163.187 29.57C161.207 29.57 159.387 29.11 157.727 28.19C156.087 27.27 154.777 25.99 153.797 24.35C152.837 22.69 152.357 20.83 152.357 18.77C152.357 16.71 152.837 14.86 153.797 13.22C154.777 11.58 156.087 10.3 157.727 9.38C159.387 8.46 161.207 8 163.187 8C165.167 8 166.977 8.46 168.617 9.38C170.277 10.3 171.577 11.58 172.517 13.22C173.477 14.86 173.957 16.71 173.957 18.77C173.957 20.83 173.477 22.69 172.517 24.35C171.557 25.99 170.257 27.27 168.617 28.19C166.977 29.11 165.167 29.57 163.187 29.57ZM163.187 24.89C164.867 24.89 166.207 24.33 167.207 23.21C168.227 22.09 168.737 20.61 168.737 18.77C168.737 16.91 168.227 15.43 167.207 14.33C166.207 13.21 164.867 12.65 163.187 12.65C161.487 12.65 160.127 13.2 159.107 14.3C158.107 15.4 157.607 16.89 157.607 18.77C157.607 20.63 158.107 22.12 159.107 23.24C160.127 24.34 161.487 24.89 163.187 24.89Z" fill="white"/>
<path d="M184.431 29.57C182.891 29.57 181.511 29.32 180.291 28.82C179.071 28.32 178.091 27.58 177.351 26.6C176.631 25.62 176.251 24.44 176.211 23.06H181.671C181.751 23.84 182.021 24.44 182.481 24.86C182.941 25.26 183.541 25.46 184.281 25.46C185.041 25.46 185.641 25.29 186.081 24.95C186.521 24.59 186.741 24.1 186.741 23.48C186.741 22.96 186.561 22.53 186.201 22.19C185.861 21.85 185.431 21.57 184.911 21.35C184.411 21.13 183.691 20.88 182.751 20.6C181.391 20.18 180.281 19.76 179.421 19.34C178.561 18.92 177.821 18.3 177.201 17.48C176.581 16.66 176.271 15.59 176.271 14.27C176.271 12.31 176.981 10.78 178.401 9.68C179.821 8.56 181.671 8 183.951 8C186.271 8 188.141 8.56 189.561 9.68C190.981 10.78 191.741 12.32 191.841 14.3H186.291C186.251 13.62 186.001 13.09 185.541 12.71C185.081 12.31 184.491 12.11 183.771 12.11C183.151 12.11 182.651 12.28 182.271 12.62C181.891 12.94 181.701 13.41 181.701 14.03C181.701 14.71 182.021 15.24 182.661 15.62C183.301 16 184.301 16.41 185.661 16.85C187.021 17.31 188.121 17.75 188.961 18.17C189.821 18.59 190.561 19.2 191.181 20C191.801 20.8 192.111 21.83 192.111 23.09C192.111 24.29 191.801 25.38 191.181 26.36C190.581 27.34 189.701 28.12 188.541 28.7C187.381 29.28 186.011 29.57 184.431 29.57Z" fill="white"/>
</svg>
