<svg width="24" height="24" viewBox="0 0 24 24" fill="none" xmlns="http://www.w3.org/2000/svg">
<path d="M21.4301 17.0027C21.375 16.9134 21.3178 16.826 21.2581 16.7408C20.5961 15.2257 19.6456 14.0535 18.538 13.3386C18.1772 12.8334 17.776 12.3949 17.3437 12.0308L17.6293 11.2407C18.0408 10.1023 17.6374 8.84874 16.7232 8.17936L18.6372 2.8843C18.7593 2.54638 18.5953 2.16932 18.2708 2.04212C17.9463 1.91484 17.5843 2.08576 17.4622 2.42363L15.5483 7.7187C14.4372 7.59412 13.3403 8.25941 12.9288 9.39786L12.409 10.8358C10.1504 9.00719 6.80066 10.3211 6.28698 13.2768C5.13755 13.985 4.15039 15.1811 3.46906 16.7406C3.41002 16.8249 3.35336 16.9113 3.29883 16.9996H2.62774C2.28103 16.9996 2 17.2923 2 17.6534C2 18.0144 2.28103 18.3072 2.62774 18.3072H3.62239L5.13814 20.3307C5.92105 21.376 7.17684 22 8.49728 22H15.5027C16.8232 22 18.079 21.3759 18.8619 20.3307L20.3776 18.3072H21.3723C21.719 18.3072 22 18.0144 22 17.6534C22 17.3127 21.7497 17.0331 21.4301 17.0027ZM14.1673 12.1042C14.7433 12.1042 15.306 12.2594 15.8344 12.5498C14.9393 12.5784 13.7968 12.9101 12.3639 13.5584C11.8918 13.3447 11.4515 13.1658 11.041 13.0205C12.6059 12.3103 13.5731 12.1042 14.1673 12.1042ZM18.3665 16.9996C17.772 16.6086 17.198 16.242 16.6459 15.9007C17.8837 15.7499 19.007 16.1804 19.817 16.9996H18.3665ZM14.9947 14.9179C14.6211 14.705 14.2608 14.5071 13.9131 14.3229C15.5332 13.722 16.7764 13.5763 18.1954 14.6757C17.1031 14.4349 16.1423 14.6025 14.9947 14.9179ZM8.7678 13.8551C9.7528 13.8551 11.7611 14.4198 15.823 16.9125H14.9126C11.4969 15.3514 9.03419 14.5601 7.59008 14.5601C7.22968 14.5601 6.87509 14.5999 6.53085 14.6759C7.21544 14.1454 7.97932 13.8551 8.7678 13.8551ZM11.5873 16.9125H4.99933C5.69706 16.2504 6.61595 15.8676 7.59012 15.8676C8.23277 15.8676 9.41743 16.0778 11.5873 16.9125ZM16.4543 10.78L16.2628 11.31C16.0727 11.2137 15.8789 11.1304 15.6818 11.0605L16.2494 9.4902C16.5239 9.83977 16.6177 10.3279 16.4543 10.78ZM15.0744 9.02954L14.4327 10.8049C14.2076 10.7914 14.0009 10.7939 13.7572 10.8174L14.1038 9.85852C14.2672 9.40644 14.6468 9.10391 15.0744 9.02954ZM11.15 11.5564C10.441 11.8502 9.7293 12.1981 9.04899 12.5578C8.62903 12.529 8.21798 12.5642 7.8276 12.6483C8.50466 11.4302 9.95053 10.9714 11.15 11.5564Z" fill="black"/>
</svg>
