<svg width="24" height="24" viewBox="0 0 24 24" fill="none" xmlns="http://www.w3.org/2000/svg">
<path d="M21.2188 11.2188H12.7812V2.78125C12.7812 2.34977 12.4315 2 12 2C11.5685 2 11.2188 2.34977 11.2188 2.78125V11.2188H2.78125C2.34977 11.2188 2 11.5685 2 12C2 12.4315 2.34977 12.7812 2.78125 12.7812H11.2188V21.2188C11.2188 21.6502 11.5685 22 12 22C12.4315 22 12.7812 21.6502 12.7812 21.2188V12.7812H21.2188C21.6502 12.7812 22 12.4315 22 12C22 11.5685 21.6502 11.2188 21.2188 11.2188Z" fill="black"/>
</svg>
