<svg width="24" height="24" viewBox="0 0 24 24" fill="none" xmlns="http://www.w3.org/2000/svg">
<path d="M22 8.30114V7.22727C22 5.99718 21.0206 5 19.8125 5H4.1875C2.97938 5 2 5.99718 2 7.22727V8.30114C2 8.41095 2.08746 8.5 2.19531 8.5H21.8047C21.9125 8.5 22 8.41095 22 8.30114Z" fill="white"/>
<path d="M2 9.97157V16.7727C2 18.0028 2.97938 19 4.1875 19H19.8125C21.0206 19 22 18.0028 22 16.7727V9.97157C22 9.86176 21.9125 9.77271 21.8047 9.77271H2.19531C2.08746 9.77271 2 9.86176 2 9.97157ZM7 15.1818C7 15.5332 6.72016 15.8182 6.375 15.8182H5.75C5.40484 15.8182 5.125 15.5332 5.125 15.1818V14.5454C5.125 14.194 5.40484 13.9091 5.75 13.9091H6.375C6.72016 13.9091 7 14.194 7 14.5454V15.1818Z" fill="white"/>
</svg>
